<svg width="17" height="17" viewBox="0 0 17 17" fill="none" xmlns="http://www.w3.org/2000/svg">
<path d="M8.5 15.1668C11.245 15.1668 13.5 12.9915 13.5 10.1995C13.5 9.51416 13.465 8.7795 13.085 7.6375C13.0136 7.42294 12.9529 7.24349 12.8988 7.08885C12.7311 6.60968 11.771 7.04735 11.422 7.41605V7.41605C11.1219 7.7331 10.7642 7.24584 10.6287 6.83083C10.3856 6.08567 9.99393 5.09283 9.506 4.37783C9.19977 3.92941 8.85273 3.53813 8.50362 3.19578C7.90141 2.60525 6.8232 3.10097 6.6253 3.92086C6.5098 4.39935 6.36271 4.83813 6.195 5.1535C5.783 5.9285 5.70567 5.95683 5.19067 6.5335C4.676 7.11016 4.43967 7.2885 4.009 7.9885C3.57867 8.6885 3.5 9.62083 3.5 10.3062C3.5 13.0982 5.755 15.1668 8.5 15.1668Z" stroke="#FD3250" stroke-linejoin="round"/>
</svg>
