<svg width="24" height="24" viewBox="0 0 24 24" fill="none" xmlns="http://www.w3.org/2000/svg">
<path d="M19.725 1.5V15.15H14.7V6.52501C14.7 5.1923 15.2294 3.91415 16.1718 2.97178C17.1142 2.02941 18.3923 1.5 19.725 1.5Z" stroke="#929F92" stroke-width="1.4" stroke-linecap="round" stroke-linejoin="round"/>
<path d="M16.8 15.0752H19.725V21.3752C19.725 21.7531 19.5749 22.1156 19.3076 22.3828C19.0404 22.6501 18.6779 22.8002 18.3 22.8002H18.225C17.8471 22.8002 17.4846 22.6501 17.2174 22.3828C16.9501 22.1156 16.8 21.7531 16.8 21.3752V15.0752Z" stroke="#929F92" stroke-width="1.4" stroke-linecap="round" stroke-linejoin="round"/>
<path d="M7.20003 22.8002C6.74253 22.8002 6.30377 22.6185 5.98027 22.295C5.65677 21.9715 5.47504 21.5327 5.47504 21.0752L6.22504 11.7002H8.25002L9.00002 21.0752C9.00024 21.3082 8.95328 21.5388 8.86194 21.7531C8.7706 21.9675 8.63677 22.1611 8.46856 22.3223C8.30035 22.4835 8.10124 22.6089 7.88322 22.6911C7.6652 22.7732 7.43279 22.8103 7.20003 22.8002Z" stroke="#929F92" stroke-width="1.4" stroke-linecap="round" stroke-linejoin="round"/>
<path d="M10.575 8.3252C10.4534 9.1433 10.0419 9.8905 9.41553 10.4306C8.78917 10.9708 7.98961 11.2679 7.16251 11.2679C6.33542 11.2679 5.53584 10.9708 4.90947 10.4306C4.2831 9.8905 3.87162 9.1433 3.75 8.3252H10.575Z" stroke="#929F92" stroke-width="1.4" stroke-linecap="round" stroke-linejoin="round"/>
<path d="M3.75 2.1001V8.32511" stroke="#929F92" stroke-width="1.4" stroke-linecap="round" stroke-linejoin="round"/>
<path d="M7.125 2.1001V8.1751" stroke="#929F92" stroke-width="1.4" stroke-linecap="round" stroke-linejoin="round"/>
<path d="M10.575 2.1001V8.32511" stroke="#929F92" stroke-width="1.4" stroke-linecap="round" stroke-linejoin="round"/>
</svg>
