<svg width="34" height="34" viewBox="0 0 34 34" fill="none" xmlns="http://www.w3.org/2000/svg">
<path d="M20.2234 10.3725L10.7618 11.8114C4.40331 12.7739 3.83594 16.0629 9.50447 19.1001L11.2186 20.02C11.7169 20.2926 12.0571 20.7746 12.1469 21.3354L12.4336 23.2505C13.3961 29.609 16.6769 30.1822 19.7223 24.5079L24.2481 16.0752C26.2784 12.2924 24.4678 9.72695 20.2234 10.3725ZM20.0292 15.6991L15.6173 18.8128C15.2824 19.0492 14.8085 18.9674 14.5721 18.6325C14.3357 18.2975 14.4174 17.8236 14.7524 17.5872L19.1643 14.4735C19.4993 14.2371 19.9731 14.3189 20.2095 14.6538C20.446 14.9888 20.3642 15.4627 20.0292 15.6991Z" fill="#86BF3E"/>
</svg>
