<svg width="40" height="40" viewBox="0 0 40 40" fill="none" xmlns="http://www.w3.org/2000/svg">
<g filter="url(#filter0_b_94_1986)">
<rect width="40" height="40" rx="20" fill="#F5F6F5" fill-opacity="0.8"/>
</g>
<path d="M26.5 30C27.2956 30 28.0587 29.6839 28.6213 29.1213C29.1839 28.5587 29.5 27.7956 29.5 27C29.5 26.2044 29.1839 25.4413 28.6213 24.8787C28.0587 24.3161 27.2956 24 26.5 24C25.7044 24 24.9413 24.3161 24.3787 24.8787C23.8161 25.4413 23.5 26.2044 23.5 27C23.5 27.7956 23.8161 28.5587 24.3787 29.1213C24.9413 29.6839 25.7044 30 26.5 30Z" stroke="#001E00" stroke-width="1.25" stroke-linecap="round" stroke-linejoin="round"/>
<path d="M26.5 16C27.2956 16 28.0587 15.6839 28.6213 15.1213C29.1839 14.5587 29.5 13.7956 29.5 13C29.5 12.2044 29.1839 11.4413 28.6213 10.8787C28.0587 10.3161 27.2956 10 26.5 10C25.7044 10 24.9413 10.3161 24.3787 10.8787C23.8161 11.4413 23.5 12.2044 23.5 13C23.5 13.7956 23.8161 14.5587 24.3787 15.1213C24.9413 15.6839 25.7044 16 26.5 16Z" stroke="#001E00" stroke-width="1.25" stroke-linecap="round" stroke-linejoin="round"/>
<path d="M14.5 23C15.2956 23 16.0587 22.6839 16.6213 22.1213C17.1839 21.5587 17.5 20.7956 17.5 20C17.5 19.2044 17.1839 18.4413 16.6213 17.8787C16.0587 17.3161 15.2956 17 14.5 17C13.7044 17 12.9413 17.3161 12.3787 17.8787C11.8161 18.4413 11.5 19.2044 11.5 20C11.5 20.7956 11.8161 21.5587 12.3787 22.1213C12.9413 22.6839 13.7044 23 14.5 23V23Z" stroke="#001E00" stroke-width="1.25" stroke-linecap="round" stroke-linejoin="round"/>
<path d="M24 14.5L17 18.5" stroke="#001E00" stroke-width="1.25"/>
<path d="M17 21.5L24 25.5" stroke="#001E00" stroke-width="1.25"/>
<defs>
<filter id="filter0_b_94_1986" x="-8" y="-8" width="56" height="56" filterUnits="userSpaceOnUse" color-interpolation-filters="sRGB">
<feFlood flood-opacity="0" result="BackgroundImageFix"/>
<feGaussianBlur in="BackgroundImageFix" stdDeviation="4"/>
<feComposite in2="SourceAlpha" operator="in" result="effect1_backgroundBlur_94_1986"/>
<feBlend mode="normal" in="SourceGraphic" in2="effect1_backgroundBlur_94_1986" result="shape"/>
</filter>
</defs>
</svg>
